REM DIRINDEX 1\2,1\3,1\4,1\5\6,1\5\7,1\8
REM DIRNAME folder01,folder02,folder03,folder04,folder05,folder06,folder07,folder08
TITLE ""
FILE "163 Åy163ÅzUnit10 (1837 sink in_1848 in terms of Å`).mp3" MP3
  TRACK 01 AUDIO
    TITLE "0:"
    INDEX 01 00:00:00
  TRACK 02 AUDIO
    TITLE "2:cjc115_6394"
    INDEX 01 00:00:07
  TRACK 03 AUDIO
    TITLE "0:"
    INDEX 01 00:01:38
  TRACK 04 AUDIO
    TITLE "3:cjc115_6395"
    INDEX 01 00:01:44
  TRACK 05 AUDIO
    TITLE "0:"
    INDEX 01 00:03:59
  TRACK 06 AUDIO
    TITLE "4:cjc115_6396"
    INDEX 01 00:03:68
  TRACK 07 AUDIO
    TITLE "0:"
    INDEX 01 00:08:17
  TRACK 08 AUDIO
    TITLE "2:cjc115_6397"
    INDEX 01 00:09:26
  TRACK 09 AUDIO
    TITLE "0:"
    INDEX 01 00:10:65
  TRACK 10 AUDIO
    TITLE "3:cjc115_6398"
    INDEX 01 00:10:74
  TRACK 11 AUDIO
    TITLE "0:"
    INDEX 01 00:13:55
  TRACK 12 AUDIO
    TITLE "4:cjc115_6399"
    INDEX 01 00:13:61
  TRACK 13 AUDIO
    TITLE "0:"
    INDEX 01 00:17:57
  TRACK 14 AUDIO
    TITLE "2:cjc115_6400"
    INDEX 01 00:18:66
  TRACK 15 AUDIO
    TITLE "0:"
    INDEX 01 00:20:16
  TRACK 16 AUDIO
    TITLE "3:cjc115_6401"
    INDEX 01 00:20:22
  TRACK 17 AUDIO
    TITLE "0:"
    INDEX 01 00:21:58
  TRACK 18 AUDIO
    TITLE "4:cjc115_6402"
    INDEX 01 00:21:62
  TRACK 19 AUDIO
    TITLE "0:"
    INDEX 01 00:24:33
  TRACK 20 AUDIO
    TITLE "2:cjc115_6403"
    INDEX 01 00:25:41
  TRACK 21 AUDIO
    TITLE "0:"
    INDEX 01 00:26:66
  TRACK 22 AUDIO
    TITLE "3:cjc115_6404"
    INDEX 01 00:27:00
  TRACK 23 AUDIO
    TITLE "0:"
    INDEX 01 00:31:14
  TRACK 24 AUDIO
    TITLE "4:cjc115_6405"
    INDEX 01 00:31:16
  TRACK 25 AUDIO
    TITLE "0:"
    INDEX 01 00:35:63
  TRACK 26 AUDIO
    TITLE "2:cjc115_6406"
    INDEX 01 00:36:72
  TRACK 27 AUDIO
    TITLE "0:"
    INDEX 01 00:38:18
  TRACK 28 AUDIO
    TITLE "3:cjc115_6407"
    INDEX 01 00:38:30
  TRACK 29 AUDIO
    TITLE "0:"
    INDEX 01 00:40:66
  TRACK 30 AUDIO
    TITLE "4:cjc115_6408"
    INDEX 01 00:40:72
  TRACK 31 AUDIO
    TITLE "0:"
    INDEX 01 00:44:01
  TRACK 32 AUDIO
    TITLE "2:cjc115_6409"
    INDEX 01 00:45:10
  TRACK 33 AUDIO
    TITLE "0:"
    INDEX 01 00:46:29
  TRACK 34 AUDIO
    TITLE "3:cjc115_6410"
    INDEX 01 00:46:37
  TRACK 35 AUDIO
    TITLE "0:"
    INDEX 01 00:48:42
  TRACK 36 AUDIO
    TITLE "4:cjc115_6411"
    INDEX 01 00:48:44
  TRACK 37 AUDIO
    TITLE "0:"
    INDEX 01 00:52:26
  TRACK 38 AUDIO
    TITLE "2:cjc115_6412"
    INDEX 01 00:53:35
  TRACK 39 AUDIO
    TITLE "0:"
    INDEX 01 00:54:64
  TRACK 40 AUDIO
    TITLE "3:cjc115_6413"
    INDEX 01 00:54:72
  TRACK 41 AUDIO
    TITLE "0:"
    INDEX 01 00:58:34
  TRACK 42 AUDIO
    TITLE "4:cjc115_6414"
    INDEX 01 00:58:40
  TRACK 43 AUDIO
    TITLE "0:"
    INDEX 01 01:01:66
  TRACK 44 AUDIO
    TITLE "2:cjc115_6415"
    INDEX 01 01:02:71
  TRACK 45 AUDIO
    TITLE "0:"
    INDEX 01 01:04:31
  TRACK 46 AUDIO
    TITLE "3:cjc115_6416"
    INDEX 01 01:04:39
  TRACK 47 AUDIO
    TITLE "0:"
    INDEX 01 01:07:63
  TRACK 48 AUDIO
    TITLE "4:cjc115_6417"
    INDEX 01 01:07:64
  TRACK 49 AUDIO
    TITLE "0:"
    INDEX 01 01:11:72
  TRACK 50 AUDIO
    TITLE "2:cjc115_6418"
    INDEX 01 01:13:04
  TRACK 51 AUDIO
    TITLE "0:"
    INDEX 01 01:14:33
  TRACK 52 AUDIO
    TITLE "3:cjc115_6419"
    INDEX 01 01:14:41
  TRACK 53 AUDIO
    TITLE "0:"
    INDEX 01 01:16:52
  TRACK 54 AUDIO
    TITLE "4:cjc115_6420"
    INDEX 01 01:16:60
  TRACK 55 AUDIO
    TITLE "0:"
    INDEX 01 01:20:49
  TRACK 56 AUDIO
    TITLE "2:cjc115_6421"
    INDEX 01 01:21:57
  TRACK 57 AUDIO
    TITLE "0:"
    INDEX 01 01:23:03
  TRACK 58 AUDIO
    TITLE "3:cjc115_6422"
    INDEX 01 01:23:11
  TRACK 59 AUDIO
    TITLE "0:"
    INDEX 01 01:26:44
  TRACK 60 AUDIO
    TITLE "4:cjc115_6423"
    INDEX 01 01:26:54
  TRACK 61 AUDIO
    TITLE "0:"
    INDEX 01 01:29:48
  TRACK 62 AUDIO
    TITLE "2:cjc115_6424"
    INDEX 01 01:30:54
  TRACK 63 AUDIO
    TITLE "0:"
    INDEX 01 01:32:02
  TRACK 64 AUDIO
    TITLE "3:cjc115_6425"
    INDEX 01 01:32:12
  TRACK 65 AUDIO
    TITLE "0:"
    INDEX 01 01:33:29
  TRACK 66 AUDIO
    TITLE "4:cjc115_6426"
    INDEX 01 01:33:36
  TRACK 67 AUDIO
    TITLE "0:"
    INDEX 01 01:37:24
  TRACK 68 AUDIO
    TITLE "2:cjc115_6427"
    INDEX 01 01:38:34
  TRACK 69 AUDIO
    TITLE "0:"
    INDEX 01 01:39:70
  TRACK 70 AUDIO
    TITLE "3:cjc115_6428"
    INDEX 01 01:40:03
  TRACK 71 AUDIO
    TITLE "0:"
    INDEX 01 01:42:65
  TRACK 72 AUDIO
    TITLE "4:cjc115_6429"
    INDEX 01 01:42:67
  TRACK 73 AUDIO
    TITLE "0:"
    INDEX 01 01:46:70
